<mxfile host="app.diagrams.net" modified="2024-04-28T06:37:08.514Z" agent="Mozilla/5.0 (Macintosh; Intel Mac OS X 10_15_7) AppleWebKit/537.36 (KHTML, like Gecko) Chrome/123.0.0.0 Safari/537.36" version="24.3.1" etag="b9ik75nBMc95PJnAJI1N" type="github">
  <diagram name="Page-1" id="f42iK7SObYjySSxuWM-L">
    <mxGraphModel>
      <root>
        <mxCell id="0" />
        <mxCell id="1" parent="0" />
      </root>
    </mxGraphModel>
  </diagram>
</mxfile>
